<svg xmlns="http://www.w3.org/2000/svg" width="128" height="128" viewBox="0 0 128 128" role="img" aria-labelledby="title">
<title id="title">Task Lantern</title>
<rect x="1" y="1" width="126" height="126" rx="24" fill="#f6f5f1" stroke="#dedfd5"/>
<g fill="none" stroke="#ae5630" stroke-width="5" stroke-linecap="round" stroke-linejoin="round">
<path d="M47 42V32a17 17 0 0 1 34 0v10M36 49h56M39 57v31a9 9 0 0 0 9 9h32a9 9 0 0 0 9-9V57M35 107h58"/>
<path d="M64 57c-2 8-9 13-9 21a9 9 0 0 0 18 0c0-7-5-14-9-21z" fill="#ae5630" stroke="none"/>
</g>
</svg>
